<svg aria-hidden="true" style="position: absolute; width: 0; height: 0; overflow: hidden;" version="1.1" xmlns="http://www.w3.org/2000/svg" xmlns:xlink="http://www.w3.org/1999/xlink">
<defs>
<symbol id="icon-star4" viewBox="0 0 34 32">
<path fill="#d9d9d9" style="fill: var(--color1, #d9d9d9)" d="M2.581 20.158l0.691-0.771 1.050 0.57-0.572-0.839 0.865-0.964-0.986 0.408-0.195-0.9-0.357 0.825-1.134-0.345 0.913 0.855-0.275 1.16z"></path>
<path fill="#d9d9d9" style="fill: var(--color1, #d9d9d9)" d="M7.726 19.639l2.63-0.225 1.432 2.278-0.299-2.549 2.77-0.962-2.714-0.229 0.632-2.132-1.73 1.667-1.545-1.478 0.81 2.382-1.986 1.248z"></path>
<path fill="#d9d9d9" style="fill: var(--color1, #d9d9d9)" d="M26.813 4.442l1.023-0.089 0.555 0.883-0.114-0.989 1.078-0.376-1.055-0.087 0.247-0.828-0.674 0.648-0.6-0.572 0.313 0.923-0.773 0.486z"></path>
<path fill="#d9d9d9" style="fill: var(--color1, #d9d9d9)" d="M25.534 21.018l0.067-0.758-0.56-0.313 0.477-0.055 0.191-0.861 0.127 0.68 0.99-0.537-0.711 0.794 0.435 0.617-0.581-0.278-0.436 0.711z"></path>
<path fill="#d9d9d9" style="fill: var(--color1, #d9d9d9)" d="M26.778 16.793l-1.752-0.464-0.855 1.227-0.022-1.174-1.963-0.806 1.614-0.035-1.029-2.607 1.691 2.034 1.536-0.804-0.779 1.29 1.558 1.338z"></path>
<path fill="#d9d9d9" style="fill: var(--color1, #d9d9d9)" d="M18.74 11.579l0.801-1.827 1.549 0.025-1.213-0.906 0.358-2.607-1.050 2.145-0.82-1.305 0.037 1.743-1.289 0.865 1.59 0.026 0.038 1.84z"></path>
<path fill="#d9d9d9" style="fill: var(--color1, #d9d9d9)" d="M17.246 22.179l1.613-1.171 1.777 0.98-1.147-1.602 1.429-1.722-1.838 0.898-0.39-1.682-0.503 1.545-1.541-0.148 1.414 1.291-0.815 1.611z"></path>
<path fill="#d9d9d9" style="fill: var(--color1, #d9d9d9)" d="M26.36 11.994l1.14-0.777 1.205 0.712-0.756-1.129 1.024-1.161-1.288 0.583-0.232-1.169-0.38 1.229-1.062-0.305 0.948 0.92-0.598 1.097z"></path>
</symbol>
<symbol id="icon-star3" viewBox="0 0 30 32">
<path fill="#d9d9d9" style="fill: var(--color1, #d9d9d9)" d="M10.297 2.836l2.649 1.077 2.542-1.957-1.48 2.606 2.459 1.904-2.945-0.623-0.315 2.461-1.047-2.318-2.294 1.073 1.938-2.265-1.506-1.957z"></path>
<path fill="#d9d9d9" style="fill: var(--color1, #d9d9d9)" d="M18.254 19.294l1.394 0.571 1.334-1.027-0.775 1.37 1.295 1.005-1.549-0.332-0.163 1.295-0.553-1.222-1.205 0.562 1.016-1.19-0.795-1.032z"></path>
<path fill="#d9d9d9" style="fill: var(--color1, #d9d9d9)" d="M13.011 11.627l0.476 0.619-0.417 0.631 0.528-0.257 0.661 0.628-0.232-0.675 1.323-0.165-1.169-0.238 0.124-0.817-0.457 0.614-0.837-0.341z"></path>
<path fill="#d9d9d9" style="fill: var(--color1, #d9d9d9)" d="M13.013 17.019l0.002 2.191 1.632 0.468-1.684 0.573-0.819 2.877-0.117-2.608-1.456 1.121 0.836-1.835-0.953-1.328 1.675 0.48 0.883-1.938z"></path>
<path fill="#d9d9d9" style="fill: var(--color1, #d9d9d9)" d="M18.633 23.619l0.837 1.187 1.587-0.37-1.308 0.955 0.54 1.557-1.081-1.029-0.778 1.165 0.165-1.423-1.25-0.016 1.413-0.672-0.124-1.353z"></path>
<path fill="#d9d9d9" style="fill: var(--color1, #d9d9d9)" d="M24.033 24.076l-0.15 0.799 0.612 0.337-0.704 0.037-0.521 0.965 0.133-0.963-0.651 0.26 0.456-0.584-0.285-0.582 0.628 0.346 0.482-0.616z"></path>
</symbol>
<symbol id="icon-star2" viewBox="0 0 24 32">
<path fill="#d9d9d9" style="fill: var(--color1, #d9d9d9)" d="M14.016 9.678l-0.303 1.104 1.108 0.65-1.080-0.042-0.379 1.381-0.191-1.166-0.921 0.347 0.541-0.822-0.953-0.861 1.287 0.353 0.889-0.943z"></path>
<path fill="#d9d9d9" style="fill: var(--color1, #d9d9d9)" d="M8.59 0l1.287 2.601h2.864l-2.466 1.224 0.702 3.169-1.743-2.412-1.563 1.851 0.522-2.608-2.207-0.579 2.604-0.645v-2.601z"></path>
<path fill="#d9d9d9" style="fill: var(--color1, #d9d9d9)" d="M9.127 18.476l0.675 1.372h1.503l-1.294 0.645 0.369 1.671-0.915-1.272-0.82 0.976 0.274-1.375-1.158-0.305 1.367-0.34v-1.372z"></path>
<path fill="#d9d9d9" style="fill: var(--color1, #d9d9d9)" d="M14.842 16.8l-0.645 0.51-0.599-0.341 0.22 0.48-0.667 0.687 0.685-0.282 0.077 1.247 0.313-1.136 0.803 0.044-0.58-0.381 0.393-0.829z"></path>
<path fill="#d9d9d9" style="fill: var(--color1, #d9d9d9)" d="M5.798 18.105l-1.192 1.83 0.9 1.439-1.503-0.604-2.146 1.875 1.338-2.252h-1.64l1.591-0.995 0.049-1.721 0.923 1.477 1.68-1.050z"></path>
<path fill="#d9d9d9" style="fill: var(--color1, #d9d9d9)" d="M16.569 23.757l0.1 1.14 1.265 0.224-1.027 0.336 0.125 1.426-0.584-1.027-0.743 0.646 0.221-0.959-1.193-0.476 1.33-0.117 0.506-1.194z"></path>
<path fill="#d9d9d9" style="fill: var(--color1, #d9d9d9)" d="M21.377 13.037l-0.141 2.206 1.889 1.090-2.093-0.131-0.742 2.358-0.232-2.255-1.736 0.626 1.108-1.384-1.006-1.359 1.963 0.565 0.99-1.716z"></path>
<path fill="#d9d9d9" style="fill: var(--color1, #d9d9d9)" d="M11.448 27.695l-0.054 1.528 1.324 0.711-1.445-0.044-0.466 1.647-0.204-1.554-1.185 0.472 0.892-1.082-0.876-0.817 1.365 0.347 0.649-1.209z"></path>
</symbol>
<symbol id="icon-star1" viewBox="0 0 61 32">
<path fill="#d9d9d9" style="fill: var(--color1, #d9d9d9)" d="M45.529 12.81l-1.575-0.241-0.72 1.637-0.116-1.5-1.971-0.301 1.582-0.451-0.629-1.218 1.224 0.616 1.038-1.457-0.281 1.837 1.447 1.078z"></path>
<path fill="#d9d9d9" style="fill: var(--color1, #d9d9d9)" d="M58.040 3.749l-3.39 2.198 0.461 3.96-2.089-3.213-4.269 1.481 3.056-2.799-2.812-1.864 3.69 0.302 0.445-3.145 1.311 3.498 3.598-0.419z"></path>
<path fill="#d9d9d9" style="fill: var(--color1, #d9d9d9)" d="M29.020 9.846l-1.789 1.155 0.242 2.078-1.101-1.686-2.252 0.779 1.612-1.47-1.482-0.977 1.946 0.158 0.236-1.651 0.69 1.835 1.897-0.221z"></path>
<path fill="#d9d9d9" style="fill: var(--color1, #d9d9d9)" d="M35.813 15.099l-0.809-0.81 0.375-0.884-0.628 0.382-1.058-0.812 0.5 0.902-1.712 0.308 1.621 0.25 0.068 1.117 0.433-0.863 1.21 0.41z"></path>
<path fill="#d9d9d9" style="fill: var(--color1, #d9d9d9)" d="M36.504 3.351l-1.138 0.132-0.461-0.842-0.090 0.73-1.293 0.327 1.018 0.167-0.82 1.534 1.201-1.117 0.919 0.639-0.408-0.875 1.072-0.695z"></path>
<path fill="#d9d9d9" style="fill: var(--color1, #d9d9d9)" d="M26.469 18.606l-1.561 0.322-0.106 1.785-0.63-1.366-1.953 0.403 1.326-0.973-1.013-0.923 1.362 0.152 0.466-1.727 0.375 1.82 1.732 0.508z"></path>
<path fill="#d9d9d9" style="fill: var(--color1, #d9d9d9)" d="M42.068 23.531l-3.073 0.16-1.203 2.788-0.156-2.915-3.38-0.647 3.081-0.684-1.146-2.299 2.092 1.309 1.718-1.61-0.466 2.806 2.533 1.093z"></path>
<path fill="#d9d9d9" style="fill: var(--color1, #d9d9d9)" d="M19.484 12.242l-2.122 0.171-0.77 1.946-0.172-2.006-2.352-0.379 2.116-0.532-0.843-1.562 1.64 1.060 0.989-1.343-0.26 1.944 1.776 0.703z"></path>
<path fill="#d9d9d9" style="fill: var(--color1, #d9d9d9)" d="M20.196 20.438l-1.020 0.52-0.725-0.629 0.169 0.716-1.099 0.756 1.012-0.198-0.236 1.723 0.738-1.465 1.084 0.28-0.687-0.678 0.764-1.024z"></path>
<path fill="#d9d9d9" style="fill: var(--color1, #d9d9d9)" d="M10.69 24.48l-3.024-0.322-1.217 2.025-0.2-2.246-3.682-1.478 3.639 0.237-1.036-2.035 2.239 1.345 2.166-1.026-1.249 2.079 2.364 1.42z"></path>
</symbol>
</defs>
</svg>
